<mxfile host="65bd71144e">
    <diagram id="njSDgWSg8I1pwNae1JBF" name="Page-1">
        <mxGraphModel dx="1039" dy="543" grid="1" gridSize="10" guides="1" tooltips="1" connect="1" arrows="1" fold="1" page="1" pageScale="1" pageWidth="850" pageHeight="1100" math="0" shadow="0">
            <root>
                <mxCell id="0"/>
                <mxCell id="1" parent="0"/>
                <mxCell id="14" style="edgeStyle=none;html=1;entryX=0;entryY=0.5;entryDx=0;entryDy=0;exitX=0.99;exitY=0.602;exitDx=0;exitDy=0;exitPerimeter=0;" parent="1" source="2" target="11" edge="1">
                    <mxGeometry relative="1" as="geometry"/>
                </mxCell>
                <mxCell id="18" value="&lt;span style=&quot;color: rgb(0, 0, 0);&quot;&gt;Data daftar user&lt;/span&gt;" style="edgeLabel;html=1;align=center;verticalAlign=middle;resizable=0;points=[];" parent="14" vertex="1" connectable="0">
                    <mxGeometry x="-0.1548" y="1" relative="1" as="geometry">
                        <mxPoint x="3" as="offset"/>
                    </mxGeometry>
                </mxCell>
                <mxCell id="2" value="P.2.1&lt;div&gt;Daftar&lt;/div&gt;" style="shape=ellipse;html=1;dashed=0;whiteSpace=wrap;aspect=fixed;perimeter=ellipsePerimeter;" parent="1" vertex="1">
                    <mxGeometry x="360" y="250" width="100" height="100" as="geometry"/>
                </mxCell>
                <mxCell id="3" value="" style="endArrow=classic;html=1;rounded=0;curved=0;jumpStyle=arc;entryX=0.901;entryY=0.199;entryDx=0;entryDy=0;exitX=0.5;exitY=1;exitDx=0;exitDy=0;entryPerimeter=0;" parent="1" source="11" target="10" edge="1">
                    <mxGeometry width="50" height="50" relative="1" as="geometry">
                        <mxPoint x="647.1900000000002" y="420.0000000000001" as="sourcePoint"/>
                        <mxPoint x="460.0000000000001" y="420.6" as="targetPoint"/>
                        <Array as="points">
                            <mxPoint x="610" y="400"/>
                        </Array>
                    </mxGeometry>
                </mxCell>
                <mxCell id="20" value="Data daftar user" style="edgeLabel;html=1;align=center;verticalAlign=middle;resizable=0;points=[];" parent="3" vertex="1" connectable="0">
                    <mxGeometry x="0.4829" y="-2" relative="1" as="geometry">
                        <mxPoint x="27" as="offset"/>
                    </mxGeometry>
                </mxCell>
                <mxCell id="4" value="" style="endArrow=classic;html=1;rounded=0;curved=0;jumpStyle=arc;entryX=1;entryY=0.5;entryDx=0;entryDy=0;exitX=1;exitY=0.5;exitDx=0;exitDy=0;" parent="1" source="15" target="10" edge="1">
                    <mxGeometry width="50" height="50" relative="1" as="geometry">
                        <mxPoint x="767.1900000000002" y="500.0000000000001" as="sourcePoint"/>
                        <mxPoint x="580.0000000000001" y="500.6" as="targetPoint"/>
                        <Array as="points">
                            <mxPoint x="680" y="265"/>
                            <mxPoint x="680" y="430"/>
                        </Array>
                    </mxGeometry>
                </mxCell>
                <mxCell id="21" value="Data daftar hotel" style="edgeLabel;html=1;align=center;verticalAlign=middle;resizable=0;points=[];" parent="4" vertex="1" connectable="0">
                    <mxGeometry x="0.5753" relative="1" as="geometry">
                        <mxPoint x="-7" as="offset"/>
                    </mxGeometry>
                </mxCell>
                <mxCell id="5" value="" style="endArrow=classic;html=1;rounded=0;curved=0;jumpStyle=arc;entryX=0.5;entryY=1;entryDx=0;entryDy=0;exitX=0;exitY=0.5;exitDx=0;exitDy=0;" parent="1" source="10" target="9" edge="1">
                    <mxGeometry width="50" height="50" relative="1" as="geometry">
                        <mxPoint x="307.1900000000001" y="470.0000000000001" as="sourcePoint"/>
                        <mxPoint x="120.00000000000006" y="470.6" as="targetPoint"/>
                        <Array as="points">
                            <mxPoint x="170" y="430"/>
                        </Array>
                    </mxGeometry>
                </mxCell>
                <mxCell id="22" value="Konfirmasi pendaftaran" style="edgeLabel;html=1;align=center;verticalAlign=middle;resizable=0;points=[];" parent="5" vertex="1" connectable="0">
                    <mxGeometry x="-0.2693" y="-1" relative="1" as="geometry">
                        <mxPoint x="7" as="offset"/>
                    </mxGeometry>
                </mxCell>
                <mxCell id="12" style="edgeStyle=none;html=1;entryX=0;entryY=0.5;entryDx=0;entryDy=0;" parent="1" source="9" target="2" edge="1">
                    <mxGeometry relative="1" as="geometry"/>
                </mxCell>
                <mxCell id="13" value="Data pendaftaran" style="edgeLabel;html=1;align=center;verticalAlign=middle;resizable=0;points=[];" parent="12" vertex="1" connectable="0">
                    <mxGeometry x="-0.3668" y="2" relative="1" as="geometry">
                        <mxPoint x="23" y="1" as="offset"/>
                    </mxGeometry>
                </mxCell>
                <mxCell id="9" value="Hotel&lt;div&gt;Organizer&lt;/div&gt;" style="html=1;dashed=0;whiteSpace=wrap;" parent="1" vertex="1">
                    <mxGeometry x="120" y="275" width="100" height="50" as="geometry"/>
                </mxCell>
                <mxCell id="10" value="P.2.2&lt;div&gt;Notifikasi email&lt;/div&gt;&lt;div&gt;pendaftaran&lt;/div&gt;" style="shape=ellipse;html=1;dashed=0;whiteSpace=wrap;aspect=fixed;perimeter=ellipsePerimeter;" parent="1" vertex="1">
                    <mxGeometry x="360" y="380" width="100" height="100" as="geometry"/>
                </mxCell>
                <mxCell id="11" value="Users" style="html=1;dashed=0;whiteSpace=wrap;shape=partialRectangle;right=0;left=0;" parent="1" vertex="1">
                    <mxGeometry x="560" y="295" width="100" height="30" as="geometry"/>
                </mxCell>
                <mxCell id="15" value="Hotels" style="html=1;dashed=0;whiteSpace=wrap;shape=partialRectangle;right=0;left=0;" parent="1" vertex="1">
                    <mxGeometry x="560" y="250" width="100" height="30" as="geometry"/>
                </mxCell>
                <mxCell id="16" style="edgeStyle=none;html=1;entryX=0;entryY=0.5;entryDx=0;entryDy=0;exitX=1;exitY=0;exitDx=0;exitDy=0;" parent="1" source="2" target="15" edge="1">
                    <mxGeometry relative="1" as="geometry">
                        <mxPoint x="450" y="264" as="sourcePoint"/>
                        <mxPoint x="551" y="266" as="targetPoint"/>
                    </mxGeometry>
                </mxCell>
                <mxCell id="17" value="Data daftar hotel" style="edgeLabel;html=1;align=center;verticalAlign=middle;resizable=0;points=[];" parent="16" vertex="1" connectable="0">
                    <mxGeometry x="-0.3463" relative="1" as="geometry">
                        <mxPoint x="17" as="offset"/>
                    </mxGeometry>
                </mxCell>
            </root>
        </mxGraphModel>
    </diagram>
</mxfile>